P2
#
3 3
255
0 200 200 
200 200 108 
178 56 89 
